#!OML:ASF F:\VICON\USERDATA\INSTALL\rory3\rory3.ASF
:FULLY-SPECIFIED
:DEGREES
3308
root 2.14323 14.3427 7.03042 -391.508 -80.2227 387.375
lowerback 19.6484 -0.376584 -7.1649
upperback -1.5489 -2.05391 1.47714
thorax -12.542 -0.402791 6.38027
lowerneck -10.5939 -6.98413 -4.47327
upperneck 19.6259 -9.95642 3.92218
head 8.25329 -4.78687 0.978607
rclavicle 4.56708e-014 -2.54444e-014
rhumerus 13.3393 -18.0687 -25.4237
rradius 55.4884
rwrist -13.16
rhand -8.64549 23.8532
rfingers 7.12502
rthumb 17.2877 -5.3979
lclavicle 4.56708e-014 -2.54444e-014
lhumerus 15.0261 26.9256 31.1346
lradius 46.4246
lwrist 27.4634
lhand 4.80763 14.9618
lfingers 7.12502
lthumb 30.1865 42.5152
rfemur -41.3534 32.2663 -0.222104
rtibia 59.3006
rfoot -16.9997 26.1361
rtoes -10.0763
lfemur -15.1085 -13.0843 -21.8256
ltibia 57.848
lfoot -34.4582 6.81076
ltoes -26.1651
3309
root 2.19501 14.3392 7.10655 -392.051 -80.5009 387.957
lowerback 19.5924 -0.273435 -7.30663
upperback -1.54673 -1.94229 1.50748
thorax -12.5208 -0.340947 6.46163
lowerneck -10.5655 -6.97769 -4.4755
upperneck 19.578 -9.93142 3.86735
head 8.2281 -4.78098 0.965808
rclavicle 2.62644e-014 -1.35174e-014
rhumerus 12.6456 -18.4352 -25.7479
rradius 54.81
rwrist -13.8358
rhand -8.33324 24.7301
rfingers 7.12502
rthumb 17.5882 -4.49439
lclavicle 2.62644e-014 -1.35174e-014
lhumerus 14.8773 27.508 31.6587
lradius 45.707
lwrist 26.9949
lhand 4.75324 14.9575
lfingers 7.12502
lthumb 30.1346 42.5203
rfemur -41.5202 32.0983 -0.679581
rtibia 58.87
rfoot -16.9793 26.4496
rtoes -11.4634
lfemur -15.3969 -12.7368 -22.2646
ltibia 58.2897
lfoot -33.4781 11.2589
ltoes -34.2799
3310
root 2.24687 14.3367 7.17834 -391.824 -80.7276 387.66
lowerback 19.6406 -0.252067 -7.24746
upperback -1.51595 -1.8996 1.53483
thorax -12.5206 -0.325121 6.4476
lowerneck -10.5074 -6.90242 -4.38582
upperneck 19.4478 -9.82344 3.81906
head 8.16168 -4.72974 0.952539
rclavicle 2.18166e-014 -4.77083e-015
rhumerus 11.9071 -18.4817 -26.1715
rradius 54.3903
rwrist -13.5903
rhand -9.25997 24.3467
rfingers 7.12502
rthumb 16.6962 -4.95527
lclavicle 2.18166e-014 -4.77083e-015
lhumerus 14.2947 27.2423 31.5267
lradius 45.5401
lwrist 27.5109
lhand 4.2984 15.189
lfingers 7.12502
lthumb 29.7005 42.8301
rfemur -41.355 31.8523 -0.652812
rtibia 58.3211
rfoot -16.8492 26.6513
rtoes -12.864
lfemur -15.7595 -12.839 -22.4044
ltibia 58.7111
lfoot -33.7499 9.6167
ltoes -30.7691
3311
root 2.29919 14.3403 7.2558 -391.599 -81.1768 387.39
lowerback 19.7411 -0.0860871 -6.8023
upperback -1.52234 -1.59988 1.37229
thorax -12.6485 -0.217484 5.92277
lowerneck -10.6215 -7.03844 -3.8156
upperneck 19.5211 -10.0526 3.50597
head 8.16911 -4.82479 0.72954
rclavicle 3.11719e-014 -3.97569e-015
rhumerus 10.7986 -19.4284 -26.5254
rradius 53.8944
rwrist -15.1568
rhand -7.79939 25.2583
rfingers 7.12502
rthumb 18.1019 -3.91938
lclavicle 3.11719e-014 -3.97569e-015
lhumerus 13.255 24.5624 29.9082
lradius 46.967
lwrist 30.4334
lhand 2.80259 16.9774
lfingers 7.12502
lthumb 28.2719 44.864
rfemur -41.3438 31.9704 -0.833122
rtibia 57.7217
rfoot -16.8275 26.7127
rtoes -14.0361
lfemur -16.1468 -12.7161 -22.3733
ltibia 59.1837
lfoot -34.3944 6.37991
ltoes -22.8569
3312
root 2.34881 14.3389 7.32585 -389.769 -81.4581 385.569
lowerback 19.6589 -0.167914 -6.69841
upperback -1.45576 -1.64762 1.60577
thorax -12.5115 -0.245518 6.13725
lowerneck -11.0612 -6.901 -3.85493
upperneck 19.8643 -9.83582 3.38963
head 8.3509 -4.72385 0.699233
rclavicle 2.86126e-014 3.97569e-015
rhumerus 10.655 -19.674 -27.1569
rradius 53.5123
rwrist -15.6905
rhand -7.99671 24.6888
rfingers 7.12502
rthumb 17.912 -4.50636
lclavicle 2.86126e-014 3.97569e-015
lhumerus 12.8111 25.7953 30.5284
lradius 46.1467
lwrist 30.0688
lhand 0.862831 18.2698
lfingers 7.12502
lthumb 26.4166 46.4491
rfemur -41.2179 31.9322 -0.834122
rtibia 57.0784
rfoot -16.7687 26.6528
rtoes -14.939
lfemur -16.6114 -12.8699 -22.3051
ltibia 59.6765
lfoot -34.5198 5.5858
ltoes -19.6343
3313
root 2.39816 14.3409 7.39305 -390.764 -81.6279 386.537
lowerback 19.736 -0.10565 -7.10785
upperback -1.46268 -1.65386 1.72866
thorax -12.5518 -0.212208 6.51948
lowerneck -10.9013 -6.87032 -4.0733
upperneck 19.7012 -9.75792 3.45125
head 8.27881 -4.70092 0.771636
rclavicle -2.59538e-014 2.8625e-014
rhumerus 10.1384 -19.8891 -27.5992
rradius 53.0853
rwrist -16.5148
rhand -8.02075 26.3269
rfingers 7.12502
rthumb 17.8889 -2.87033
lclavicle -2.59538e-014 2.8625e-014
lhumerus 11.8512 25.3886 30.4944
lradius 46.2732
lwrist 30.2373
lhand 4.89858 16.1738
lfingers 7.12502
lthumb 30.2732 43.7112
rfemur -41.2284 31.8572 -1.31625
rtibia 56.5041
rfoot -16.6558 26.8826
rtoes -15.8952
lfemur -16.9554 -12.75 -22.5976
ltibia 60.0351
lfoot -34.6912 2.84959
ltoes -11.8293
3314
root 2.45072 14.3494 7.46405 -388.805 -82.0874 384.523
lowerback 19.8556 -0.0789952 -6.71593
upperback -1.50836 -1.5268 1.78206
thorax -12.7007 -0.168846 6.3233
lowerneck -10.855 -6.98425 -3.98822
upperneck 19.784 -9.95088 3.4742
head 8.30289 -4.78584 0.743886
rclavicle -7.81472e-015 -1.27222e-014
rhumerus 9.48411 -20.3954 -28.2023
rradius 52.5638
rwrist -17.0576
rhand -7.13038 25.9549
rfingers 7.12502
rthumb 18.7454 -3.16184
lclavicle -7.81472e-015 -1.27222e-014
lhumerus 11.3326 24.8393 30.2144
lradius 46.1789
lwrist 31.1844
lhand 3.49665 17.7501
lfingers 7.12502
lthumb 28.935 45.525
rfemur -41.2643 32.2332 -1.52844
rtibia 55.9528
rfoot -16.7211 26.6039
rtoes -17.016
lfemur -17.2885 -12.7621 -22.4474
ltibia 60.4458
lfoot -34.7019 2.18581
ltoes -8.43553
3315
root 2.49663 14.3545 7.54179 -390.132 -82.2806 385.806
lowerback 19.7313 0.147662 -6.61187
upperback -1.37992 -1.21588 1.56856
thorax -12.5348 -0.0541653 5.9191
lowerneck -10.8192 -7.14036 -3.51717
upperneck 19.598 -10.2235 3.38746
head 8.21444 -4.89084 0.615813
rclavicle 7.46685e-015 4.77083e-015
rhumerus 8.0173 -20.7632 -28.1876
rradius 52.7318
rwrist -18.0459
rhand -7.47592 24.5383
rfingers 7.12502
rthumb 18.413 -4.61019
lclavicle 7.46685e-015 4.77083e-015
lhumerus 11.8074 24.9288 30.9008
lradius 45.093
lwrist 30.4451
lhand 4.33016 16.6245
lfingers 7.12502
lthumb 29.7309 44.2602
rfemur -41.1738 32.0246 -1.98957
rtibia 55.411
rfoot -16.8104 26.9783
rtoes -18.3296
lfemur -17.4328 -12.5868 -22.8668
ltibia 60.6167
lfoot -34.4928 2.72198
ltoes -8.10207
3316
root 2.54456 14.3538 7.61165 -388.154 -82.6853 383.73
lowerback 19.9764 0.176259 -6.54411
upperback -1.43885 -1.15026 1.80591
thorax -12.7516 -0.00529221 6.14205
lowerneck -10.5444 -7.10594 -3.58185
upperneck 19.3611 -10.1714 3.45773
head 8.0911 -4.87252 0.669936
rclavicle 1.6524e-015 9.54166e-015
rhumerus 7.56347 -20.8841 -28.5397
rradius 52.2693
rwrist -18.0559
rhand -7.59667 23.8316
rfingers 7.12502
rthumb 18.2969 -5.32788
lclavicle 1.6524e-015 9.54166e-015
lhumerus 11.0991 25.0964 31.2098
lradius 44.7556
lwrist 30.2018
lhand 4.87913 16.946
lfingers 7.12502
lthumb 30.2547 44.4868
rfemur -41.0258 32.0772 -1.84433
rtibia 54.8355
rfoot -16.7245 26.9531
rtoes -18.9194
lfemur -17.7798 -12.1575 -22.6381
ltibia 61.057
lfoot -34.569 2.01015
ltoes -6.81102
3317
root 2.59151 14.3517 7.68785 -388.353 -83.0132 383.911
lowerback 19.9562 0.199668 -6.39592
upperback -1.37891 -1.07919 1.8236
thorax -12.6826 0.012548 6.05283
lowerneck -10.609 -6.99876 -3.2475
upperneck 19.1999 -9.99846 3.14847
head 8.00738 -4.79469 0.537265
rclavicle 6.92019e-015 -1.90833e-014
rhumerus 7.12212 -21.1895 -29.0459
rradius 52.1026
rwrist -18.8054
rhand -7.31009 24.3115
rfingers 7.12502
rthumb 18.5726 -4.82188
lclavicle 6.92019e-015 -1.90833e-014
lhumerus 10.5507 24.9572 31.3633
lradius 44.6967
lwrist 30.5123
lhand 4.31206 17.3103
lfingers 7.12502
lthumb 29.7136 44.949
rfemur -41.0478 32.2091 -2.19931
rtibia 54.2552
rfoot -16.6544 27.0053
rtoes -20.1889
lfemur -18.0733 -12.0143 -22.8816
ltibia 61.4223
lfoot -34.5906 1.75467
ltoes -4.75241
3318
root 2.63211 14.3459 7.75936 -389.546 -83.1413 385.063
lowerback 19.995 0.0967257 -6.72405
upperback -1.33377 -1.27505 2.01437
thorax -12.6141 -0.0519938 6.51963
lowerneck -10.7554 -6.91127 -3.92427
upperneck 19.1926 -9.81328 3.48449
head 8.07839 -4.71809 0.76734
rclavicle -1.43249e-014 1.90833e-014
rhumerus 7.17736 -20.9599 -29.5835
rradius 52.034
rwrist -19.9889
rhand -7.10717 24.5295
rfingers 7.12502
rthumb 18.7677 -4.58512
lclavicle -1.43249e-014 1.90833e-014
lhumerus 9.62036 25.6333 31.3773
lradius 44.3745
lwrist 30.9832
lhand 4.57864 17.9208
lfingers 7.12502
lthumb 29.968 45.5139
rfemur -40.975 32.0469 -2.64425
rtibia 53.785
rfoot -16.7649 27.1652
rtoes -21.3639
lfemur -18.2442 -11.8597 -23.3484
ltibia 61.6118
lfoot -34.3227 3.34744
ltoes -8.83419
3319
root 2.67811 14.3496 7.8347 -388.504 -83.314 384.035
lowerback 20.0694 0.00542015 -6.59521
upperback -1.38363 -1.35763 2.12453
thorax -12.701 -0.0882176 6.60056
lowerneck -10.8206 -6.81225 -3.91819
upperneck 19.3347 -9.64098 3.27561
head 8.11925 -4.654 0.712715
rclavicle -8.74653e-015 0
rhumerus 6.6984 -20.2431 -29.8685
rradius 52.1915
rwrist -22.6233
rhand -8.40171 23.463
rfingers 7.12502
rthumb 17.5223 -5.7673
lclavicle -8.74653e-015 0
lhumerus 8.68292 25.897 31.5809
lradius 44.0485
lwrist 31.5734
lhand 4.99261 17.1426
lfingers 7.12502
lthumb 30.3629 44.6636
rfemur -40.898 31.8215 -2.84977
rtibia 53.2205
rfoot -16.8003 27.2963
rtoes -22.525
lfemur -18.6231 -11.7997 -23.4224
ltibia 61.9534
lfoot -34.2831 2.63776
ltoes -6.1846
3320
root 2.72481 14.3436 7.90043 -387.542 -83.8069 383.019
lowerback 20.1757 0.0577687 -6.44948
upperback -1.37905 -1.24402 2.25415
thorax -12.7753 -0.0365269 6.63522
lowerneck -11.0392 -6.83894 -4.18944
upperneck 19.5892 -9.66716 3.41286
head 8.26642 -4.667 0.784517
rclavicle -2.80411e-014 -1.66979e-014
rhumerus 6.4473 -20.8362 -30.5605
rradius 51.6582
rwrist -22.4485
rhand -8.40057 23.5258
rfingers 7.12502
rthumb 17.5234 -5.70444
lclavicle -2.80411e-014 -1.66979e-014
lhumerus 8.20678 26.0345 32.0159
lradius 43.7934
lwrist 31.7185
lhand 5.059 17.164
lfingers 7.12502
lthumb 30.4262 44.6732
rfemur -40.9243 31.962 -2.88573
rtibia 52.631
rfoot -16.625 27.3676
rtoes -23.6858
lfemur -18.8913 -11.6038 -23.4145
ltibia 62.3388
lfoot -34.2943 2.685
ltoes -5.19711
3321
root 2.76117 14.3423 7.97991 -387.04 -84.1224 382.391
lowerback 20.2384 0.0793508 -6.20183
upperback -1.36997 -1.15701 2.26949
thorax -12.8179 -0.0114017 6.48517
lowerneck -10.9694 -6.73602 -3.63084
upperneck 19.5463 -9.53578 2.96945
head 8.18192 -4.60997 0.570029
rclavicle 1.12686e-014 -6.36111e-015
rhumerus 5.71863 -20.8135 -31.0572
rradius 51.6121
rwrist -24.1279
rhand -9.0521 22.5845
rfingers 7.12502
rthumb 16.8963 -6.70044
lclavicle 1.12686e-014 -6.36111e-015
lhumerus 7.56744 26.4603 32.5822
lradius 43.7298
lwrist 31.662
lhand 6.01166 17.2333
lfingers 7.12502
lthumb 31.3344 44.5705
rfemur -40.6585 31.7909 -2.95635
rtibia 52.0651
rfoot -16.5558 27.5819
rtoes -24.6874
lfemur -18.8872 -11.4206 -23.711
ltibia 62.4741
lfoot -34.0304 4.86499
ltoes -10.3173
3322
root 2.80605 14.3408 8.0414 -387.312 -84.5126 382.647
lowerback 20.3688 0.168367 -6.25796
upperback -1.37711 -1.0599 2.27647
thorax -12.9167 0.0429123 6.50197
lowerneck -11.1185 -6.73417 -3.58097
upperneck 19.6637 -9.56403 3.04857
head 8.25081 -4.60904 0.576961
rclavicle 2.4289e-014 -2.14687e-014
rhumerus 5.33834 -21.2343 -31.722
rradius 51.168
rwrist -24.6211
rhand -8.71691 22.5115
rfingers 7.12502
rthumb 17.2189 -6.74564
lclavicle 2.4289e-014 -2.14687e-014
lhumerus 6.91342 26.0749 32.5945
lradius 43.8472
lwrist 32.2612
lhand 5.32771 17.6334
lfingers 7.12502
lthumb 30.6825 45.0949
rfemur -40.6733 31.5288 -2.89574
rtibia 51.5751
rfoot -16.4049 27.9757
rtoes -32.5258
lfemur -19.1389 -10.9425 -23.7467
ltibia 62.6577
lfoot -33.7425 5.58503
ltoes -13.3574
